<svg xmlns="http://www.w3.org/2000/svg" viewBox="0 0 172.01466 20">
    <path d="M2.77615 19.8296H0V0h8.55506q3.45602 0 5.354 1.58637 1.89797 1.58637 1.89797 4.70245 0 2.57785-2.01129 4.50415-1.98296 1.9263-5.24068 1.9263H2.77615Zm0-17.42172v7.9885h5.49563q1.84132 0 3.28605-1.2181 1.44473-1.2181 1.44473-2.8328 0-1.95464-1.35975-2.94612-1.35974-.99148-3.37103-.99148Zm15.12338 7.05339c0-2.53064 1.25588-3.79596 3.76763-3.79596l4.74486-.01395v2.60618l-3.83837.04228c-.81207 0-1.33141.12276-1.55804.36827-.22662.22662-.33993.81206-.33993 1.75633v9.4049h-2.77615zM28.76546 19.8296V5.6656h2.74782v14.164Z M41.57325 5.49563q2.57785.02833 4.58914 1.33142 2.01129 1.27476 2.57785 3.65432l-2.54952.39659q-1.04814-3.00277-4.61747-3.05943-2.1246-.02833-3.541 1.30309-1.4164 1.33142-1.4164 3.62599 0 2.3229 1.38807 3.6543 1.38807 1.3031 3.56933 1.24644 3.541-.05665 4.58914-2.97444l2.57785.36826q-.56656 2.37956-2.57785 3.65432-2.0113 1.27476-4.58914 1.30309-3.31438.02833-5.52396-1.84132-2.20959-1.89798-2.20959-5.41066 0-3.51267 2.20959-5.38232 2.20958-1.89797 5.52396-1.86965zm16.68872 14.50395c-2.22847.01888-4.07923-.5949-5.55229-1.84132-1.47305-1.26532-2.20958-3.06887-2.20958-5.41065 0-2.34179.73653-4.1359 2.20958-5.38233 1.47306-1.26531 3.32382-1.88853 5.5523-1.86965 2.20958.0189 4.01313.65155 5.41064 1.89798 1.4164 1.22755 2.1246 3.01221 2.1246 5.354 0 .28328-.01887.54767-.05665.79318H53.38956c.20774 1.37863.74597 2.42677 1.6147 3.1444.86872.71765 1.97352 1.06703 3.31437 1.04815 2.43621-.03777 4.0037-.9726 4.70245-2.80448l2.54952.33994c-.98204 3.11608-3.41824 4.693-7.30863 4.73078zm.05665-12.32269c-1.3975-.01889-2.60617.49102-3.62598 1.52971-.79539.82746-1.21499 1.35449-1.39266 2.67638l9.86274-.04187c-.3777-2.73838-1.9924-4.12645-4.8441-4.16422ZM70.7735 0h17.05346v2.60618l-7.13865.01576V19.8296h-2.77615V2.60618H70.7735zm16.43378 9.46156q0-3.79596 3.76763-3.79596h5.69393v2.60618l-4.78743.02833q-1.2181 0-1.55805.36826-.33993.33994-.33993 1.75634v9.4049h-2.77615zm21.82596 7.85974s-1.1048.99663-2.19113 1.60181c-1.07046.59634-2.26624.87817-3.56932.87817-1.49195 0-2.78559-.35882-3.88094-1.07646-1.07646-.71765-1.6147-1.69024-1.6147-2.91779 0-1.152.38716-2.03962 1.16145-2.66283.77429-.62322 1.71857-1.00093 2.8328-1.13312 1.11424-.1322 2.21903-.1983 3.31438-.1983 1.11424-.01889 2.04906-.08498 2.80447-.1983.7743-.1322 1.15201-.40603 1.13312-.8215-.0377-1.05759-.39659-1.813-1.07647-2.26625-.67986-.47213-1.70911-.7082-3.08775-.7082-1.20865 0-2.18126.20774-2.91778.62322-.71764.39659-1.15201 1.11423-1.30309 2.15293l-2.43621-.33994c.16998-1.58637.89706-2.7667 2.18126-3.541 1.2842-.7743 2.77614-1.152 4.47582-1.13312.9065 0 1.7469.09443 2.52119.28328.77431.18885 1.49195.49102 2.15293.9065.67988.39659 1.20867.97259 1.58637 1.728.37771.73653.56656 1.6147.56656 2.6345-.0792 2.88458-.0184 8.67697-.0184 8.67697l-2.62222-.01973zm-8.5366-1.57093c0 .71765.33049 1.26532.99148 1.64303.66098.35882 1.4825.53823 2.46454.53823 1.2842 0 2.44565-.28328 3.48435-.84984 1.04362-.64825 1.58636-1.48043 1.58636-1.94523V12.9459c-.50991.30217-1.29365.49102-2.35122.56656-1.03869.07554-1.99241.10387-2.86113.08498-.84985-.01889-1.6147.14164-2.29457.48158-.67987.33993-1.01981.89705-1.01981 1.67135zm21.35277-10.25474q2.57785.02833 4.58914 1.33142 2.01129 1.27476 2.57785 3.65432l-2.54952.39659q-1.04814-3.00277-4.61747-3.05943-2.1246-.02833-3.541 1.30309-1.41641 1.33142-1.41641 3.62599 0 2.3229 1.38808 3.65431 1.38807 1.30309 3.56933 1.24643 3.541-.05665 4.58914-2.97444l2.57785.36826q-.56656 2.37956-2.57785 3.65432-2.01129 1.27476-4.58914 1.30309-3.31438.02832-5.52397-1.84132-2.20958-1.89798-2.20958-5.41065 0-3.51268 2.20958-5.38233 2.20959-1.89797 5.52397-1.86965zm12.24124 14.33397h-2.80448V0h2.80448l-.04591 12.39886s6.22535-5.5126 7.63783-6.73326h3.88093l-6.45878 5.63728 6.8837 8.4984h-.82151v.02833l-.0284-.02833h-2.66284l-5.43898-6.79872-2.9461 2.49286z M153.48971 19.99957c-2.22847.01888-4.07924-.59488-5.55229-1.84131-1.47305-1.26532-2.20958-3.06887-2.20958-5.41066 0-2.34178.73653-4.13588 2.20958-5.38232 1.47305-1.26531 3.32382-1.88853 5.55229-1.86965 2.20959.01887 4.01314.65155 5.41064 1.89798 1.41641 1.22755 2.12461 3.01221 2.12461 5.354 0 .28327-.0189.54767-.0566.79318h-12.35102c.20775 1.37863.74598 2.42677 1.6147 3.1444.86873.71765 1.97352 1.06703 3.31438 1.04814 2.43621-.03778 4.00369-.97259 4.70245-2.80447l2.54952.33994c-.98204 3.11608-3.41825 4.693-7.30863 4.73077zm.0566-12.32268c-1.39752-.01887-2.60617.49102-3.62598 1.52971-.79539.82746-1.215 1.35449-1.39266 2.67638l9.86274-.04186c-.37771-2.73838-1.99241-4.12645-4.8441-4.16422Zm9.95587 1.78467c0-2.53064 1.25588-3.79596 3.76762-3.79596l4.74486-.01395v2.60618l-3.83836.04228c-.81207 0-1.33141.12276-1.55804.36827-.22663.22662-.33993.81207-.33993 1.75633v9.4049h-2.77615z" />
    <path fill="#ff001f" d="M28.81753 1.14481h2.68437v2.68437h-2.68437z" />
</svg>